<?xml version="1.0" encoding="utf-8"?>
<!-- Generator: Adobe Illustrator 19.1.0, SVG Export Plug-In . SVG Version: 6.00 Build 0)  -->
<svg version="1.1" id="Layer_1" xmlns="http://www.w3.org/2000/svg" xmlns:xlink="http://www.w3.org/1999/xlink" x="0px" y="0px"
	 viewBox="0 0 100 100" enable-background="new 0 0 100 100" xml:space="preserve">
<g>
	<path fill="#EFEB65" d="M49.993,24.955c-13.806,0-25.038,11.232-25.038,25.049c0,13.809,11.232,25.041,25.038,25.041
		c13.82,0,25.052-11.232,25.052-25.041C75.045,36.187,63.813,24.955,49.993,24.955L49.993,24.955z M49.993,24.955"/>
	<path fill="#EFEB65" d="M49.993,17.59c-2.69,0-4.885-2.184-4.885-4.885V4.888C45.108,2.184,47.303,0,49.993,0
		c2.704,0,4.888,2.184,4.888,4.888v7.816C54.881,15.406,52.697,17.59,49.993,17.59L49.993,17.59z M49.993,17.59"/>
	<path fill="#EFEB65" d="M49.993,82.408c-2.69,0-4.885,2.187-4.885,4.888v7.816c0,2.693,2.195,4.888,4.885,4.888
		c2.704,0,4.888-2.195,4.888-4.888v-7.816C54.881,84.594,52.697,82.408,49.993,82.408L49.993,82.408z M49.993,82.408"/>
	<path fill="#EFEB65" d="M72.916,27.084c-1.915-1.913-1.915-5.004,0-6.909l5.525-5.536c1.901-1.901,5.004-1.901,6.909,0
		c1.913,1.913,1.913,5.007,0,6.92l-5.525,5.525C77.91,28.988,74.818,28.988,72.916,27.084L72.916,27.084z M72.916,27.084"/>
	<path fill="#EFEB65" d="M27.084,72.916c-1.913-1.915-5.004-1.915-6.909,0l-5.536,5.525c-1.901,1.913-1.901,5.004,0,6.909
		c1.913,1.913,5.007,1.913,6.92,0l5.525-5.525C28.988,77.921,28.988,74.818,27.084,72.916L27.084,72.916z M27.084,72.916"/>
	<path fill="#EFEB65" d="M82.408,49.996c0-2.693,2.184-4.888,4.888-4.888h7.817c2.693,0,4.888,2.195,4.888,4.888
		c0,2.701-2.195,4.885-4.888,4.885h-7.817C84.591,54.881,82.408,52.697,82.408,49.996L82.408,49.996z M82.408,49.996"/>
	<path fill="#EFEB65" d="M17.59,49.996c0-2.693-2.184-4.888-4.885-4.888H4.888C2.184,45.108,0,47.303,0,49.996
		c0,2.701,2.184,4.885,4.888,4.885h7.817C15.406,54.881,17.59,52.697,17.59,49.996L17.59,49.996z M17.59,49.996"/>
	<path fill="#EFEB65" d="M72.916,72.916c1.902-1.904,4.993-1.904,6.909,0l5.525,5.525c1.913,1.913,1.913,5.004,0,6.909
		c-1.904,1.913-4.996,1.913-6.909,0l-5.525-5.525C71.001,77.921,71.001,74.818,72.916,72.916L72.916,72.916z M72.916,72.916"/>
	<path fill="#EFEB65" d="M27.084,27.084c1.904-1.913,1.904-5.004,0-6.909l-5.525-5.525c-1.913-1.913-5.007-1.913-6.92,0
		c-1.901,1.901-1.901,4.996,0,6.909l5.536,5.525C22.079,28.999,25.171,28.999,27.084,27.084L27.084,27.084z M27.084,27.084"/>
</g>
</svg>
