<?xml version="1.0" encoding="utf-8"?>
<!-- Generator: Adobe Illustrator 19.1.0, SVG Export Plug-In . SVG Version: 6.00 Build 0)  -->
<svg version="1.1" id="Layer_1" xmlns="http://www.w3.org/2000/svg" xmlns:xlink="http://www.w3.org/1999/xlink" x="0px" y="0px"
	 viewBox="-120 -13 100 100" style="enable-background:new -120 -13 100 100;" xml:space="preserve">
<style type="text/css">
	.st0{fill:#C01B55;}
</style>
<g>
	<path class="st0" d="M-70,12c-13.8,0-25,11.2-25,25c0,13.8,11.2,25,25,25C-56.2,62-45,50.8-45,37C-45,23.2-56.2,12-70,12L-70,12z"
		/>
	<path class="st0" d="M-70,4.6c-2.7,0-4.9-2.2-4.9-4.9v-7.8c0-2.7,2.2-4.9,4.9-4.9c2.7,0,4.9,2.2,4.9,4.9v7.8
		C-65.1,2.4-67.3,4.6-70,4.6L-70,4.6z"/>
	<path class="st0" d="M-70,69.4c-2.7,0-4.9,2.2-4.9,4.9v7.8c0,2.7,2.2,4.9,4.9,4.9c2.7,0,4.9-2.2,4.9-4.9v-7.8
		C-65.1,71.6-67.3,69.4-70,69.4L-70,69.4z"/>
	<path class="st0" d="M-47.1,14.1c-1.9-1.9-1.9-5,0-6.9l5.5-5.5c1.9-1.9,5-1.9,6.9,0c1.9,1.9,1.9,5,0,6.9l-5.5,5.5
		C-42.1,16-45.2,16-47.1,14.1L-47.1,14.1z"/>
	<path class="st0" d="M-92.9,59.9c-1.9-1.9-5-1.9-6.9,0l-5.5,5.5c-1.9,1.9-1.9,5,0,6.9c1.9,1.9,5,1.9,6.9,0l5.5-5.5
		C-91,64.9-91,61.8-92.9,59.9L-92.9,59.9z"/>
	<path class="st0" d="M-37.6,37c0-2.7,2.2-4.9,4.9-4.9h7.8c2.7,0,4.9,2.2,4.9,4.9c0,2.7-2.2,4.9-4.9,4.9h-7.8
		C-35.4,41.9-37.6,39.7-37.6,37L-37.6,37z"/>
	<path class="st0" d="M-102.4,37c0-2.7-2.2-4.9-4.9-4.9h-7.8c-2.7,0-4.9,2.2-4.9,4.9c0,2.7,2.2,4.9,4.9,4.9h7.8
		C-104.6,41.9-102.4,39.7-102.4,37L-102.4,37z"/>
	<path class="st0" d="M-47.1,59.9c1.9-1.9,5-1.9,6.9,0l5.5,5.5c1.9,1.9,1.9,5,0,6.9c-1.9,1.9-5,1.9-6.9,0l-5.5-5.5
		C-49,64.9-49,61.8-47.1,59.9L-47.1,59.9z"/>
	<path class="st0" d="M-92.9,14.1c1.9-1.9,1.9-5,0-6.9l-5.5-5.5c-1.9-1.9-5-1.9-6.9,0c-1.9,1.9-1.9,5,0,6.9l5.5,5.5
		C-97.9,16-94.8,16-92.9,14.1L-92.9,14.1z"/>
</g>
</svg>
